{
  "accessors": [
    {
      "bufferView": 2,
      "componentType": 5126,
      "count": 1871,
      "max": [
        7.122166156768799,
        7.122163772583008,
        15.07848834991455
      ],
      "min": [
        -7.122166156768799,
        -7.122163772583008,
        -0.07848799973726273
      ],
      "type": "VEC3"
    },
    {
      "bufferView": 2,
      "byteOffset": 22452,
      "componentType": 5126,
      "count": 1871,
      "max": [
        1.0,
        1.0,
        1.0
      ],
      "min": [
        -1.0,
        -1.0,
        -1.0
      ],
      "type": "VEC3"
    },
    {
      "bufferView": 3,
      "componentType": 5126,
      "count": 1871,
      "max": [
        0.9993783831596375,
        0.606404721736908,
        0.9118877053260803,
        1.0
      ],
      "min": [
        -0.38944488763809204,
        -0.8439974784851074,
        -1.0,
        -1.0
      ],
      "type": "VEC4"
    },
    {
      "bufferView": 1,
      "componentType": 5126,
      "count": 1871,
      "max": [
        0.9561319947242737,
        0.97530597448349
      ],
      "min": [
        0.018038999289274216,
        0.034092001616954803
      ],
      "type": "VEC2"
    },
    {
      "bufferView": 0,
      "componentType": 5125,
      "count": 8052,
      "type": "SCALAR"
    },
    {
      "bufferView": 2,
      "byteOffset": 44904,
      "componentType": 5126,
      "count": 1668,
      "max": [
        7.122166156768799,
        7.122163772583008,
        15.07848834991455
      ],
      "min": [
        -7.122166156768799,
        -7.122163772583008,
        -0.07848799973726273
      ],
      "type": "VEC3"
    },
    {
      "bufferView": 2,
      "byteOffset": 64920,
      "componentType": 5126,
      "count": 1668,
      "max": [
        0.9246270060539246,
        0.9246187806129456,
        1.0
      ],
      "min": [
        -0.9246360063552856,
        -0.9246187806129456,
        -1.0
      ],
      "type": "VEC3"
    },
    {
      "bufferView": 3,
      "byteOffset": 29936,
      "componentType": 5126,
      "count": 1668,
      "max": [
        0.9996506571769714,
        0.3899112641811371,
        0.4797632396221161,
        1.0
      ],
      "min": [
        -0.38991042971611023,
        -0.5252817869186401,
        -0.924635648727417,
        -1.0
      ],
      "type": "VEC4"
    },
    {
      "bufferView": 1,
      "byteOffset": 14968,
      "componentType": 5126,
      "count": 1668,
      "max": [
        0.9511020183563232,
        0.97530597448349
      ],
      "min": [
        0.02434300072491169,
        0.034092001616954803
      ],
      "type": "VEC2"
    },
    {
      "bufferView": 0,
      "byteOffset": 32208,
      "componentType": 5125,
      "count": 7680,
      "type": "SCALAR"
    }
  ],
  "asset": {
    "extras": {
      "author": "mafroz (https://sketchfab.com/mafroz)",
      "license": "CC-BY-4.0 (http://creativecommons.org/licenses/by/4.0/)",
      "source": "https://sketchfab.com/3d-models/condensed-milk-from-ussr-982d326c8d8a42009db8958ed9614324",
      "title": "Condensed milk from USSR"
    },
    "generator": "Sketchfab-12.68.0",
    "version": "2.0"
  },
  "bufferViews": [
    {
      "buffer": 0,
      "byteLength": 62928,
      "name": "floatBufferViews",
      "target": 34963
    },
    {
      "buffer": 0,
      "byteLength": 28312,
      "byteOffset": 62928,
      "byteStride": 8,
      "name": "floatBufferViews",
      "target": 34962
    },
    {
      "buffer": 0,
      "byteLength": 84936,
      "byteOffset": 91240,
      "byteStride": 12,
      "name": "floatBufferViews",
      "target": 34962
    },
    {
      "buffer": 0,
      "byteLength": 56624,
      "byteOffset": 176176,
      "byteStride": 16,
      "name": "floatBufferViews",
      "target": 34962
    }
  ],
  "buffers": [
    {
      "byteLength": 232800,
      "uri": "scene.bin"
    }
  ],
  "images": [
    {
      "uri": "textures/01___Default_baseColor.png"
    },
    {
      "uri": "textures/01___Default_metallicRoughness.png"
    },
    {
      "uri": "textures/01___Default_normal.png"
    }
  ],
  "materials": [
    {
      "doubleSided": true,
      "name": "01___Default",
      "normalTexture": {
        "index": 2
      },
      "occlusionTexture": {
        "index": 1
      },
      "pbrMetallicRoughness": {
        "baseColorTexture": {
          "index": 0
        },
        "metallicRoughnessTexture": {
          "index": 1
        }
      }
    }
  ],
  "meshes": [
    {
      "name": "Object_0",
      "primitives": [
        {
          "attributes": {
            "NORMAL": 1,
            "POSITION": 0,
            "TANGENT": 2,
            "TEXCOORD_0": 3
          },
          "indices": 4,
          "material": 0,
          "mode": 4
        }
      ]
    },
    {
      "name": "Object_1",
      "primitives": [
        {
          "attributes": {
            "NORMAL": 6,
            "POSITION": 5,
            "TANGENT": 7,
            "TEXCOORD_0": 8
          },
          "indices": 9,
          "material": 0,
          "mode": 4
        }
      ]
    }
  ],
  "nodes": [
    {
      "children": [
        1
      ],
      "matrix": [
        1.0,
        0.0,
        0.0,
        0.0,
        0.0,
        2.220446049250313e-16,
        -1.0,
        0.0,
        0.0,
        1.0,
        2.220446049250313e-16,
        0.0,
        0.0,
        0.0,
        0.0,
        1.0
      ],
      "name": "Sketchfab_model"
    },
    {
      "children": [
        2,
        3
      ],
      "name": "44f2714bf39949d2b089926a212052f7.obj.cleaner.materialmerger.gles"
    },
    {
      "mesh": 0,
      "name": "Object_2"
    },
    {
      "mesh": 1,
      "name": "Object_3"
    }
  ],
  "samplers": [
    {
      "magFilter": 9729,
      "minFilter": 9987,
      "wrapS": 10497,
      "wrapT": 10497
    }
  ],
  "scene": 0,
  "scenes": [
    {
      "name": "Sketchfab_Scene",
      "nodes": [
        0
      ]
    }
  ],
  "textures": [
    {
      "sampler": 0,
      "source": 0
    },
    {
      "sampler": 0,
      "source": 1
    },
    {
      "sampler": 0,
      "source": 2
    }
  ]
}
