{
  "accessors": [
    {
      "bufferView": 2,
      "componentType": 5126,
      "count": 360,
      "max": [
        202.9593505859375,
        185.61244201660156,
        249.32168579101563
      ],
      "min": [
        -546.9033813476563,
        -390.8836669921875,
        -185.61253356933594
      ],
      "type": "VEC3"
    },
    {
      "bufferView": 2,
      "byteOffset": 4320,
      "componentType": 5126,
      "count": 360,
      "max": [
        1.0,
        1.0,
        1.0
      ],
      "min": [
        -1.0,
        -1.0,
        -1.0
      ],
      "type": "VEC3"
    },
    {
      "bufferView": 1,
      "componentType": 5126,
      "count": 360,
      "max": [
        0.875,
        1.0
      ],
      "min": [
        0.125,
        0.0
      ],
      "type": "VEC2"
    },
    {
      "bufferView": 0,
      "componentType": 5125,
      "count": 540,
      "type": "SCALAR"
    },
    {
      "bufferView": 2,
      "byteOffset": 8640,
      "componentType": 5126,
      "count": 7313,
      "max": [
        -109.08953857421875,
        28.578598022460938,
        55.488677978515625
      ],
      "min": [
        -736.956298828125,
        -288.1565246582031,
        -297.2674255371094
      ],
      "type": "VEC3"
    },
    {
      "bufferView": 2,
      "byteOffset": 96396,
      "componentType": 5126,
      "count": 7313,
      "max": [
        0.994292140007019,
        0.9999750256538391,
        0.9993590712547302
      ],
      "min": [
        -0.9906942844390869,
        -0.998770534992218,
        -0.9999945163726807
      ],
      "type": "VEC3"
    },
    {
      "bufferView": 3,
      "componentType": 5126,
      "count": 7313,
      "max": [
        0.73994380235672,
        0.9988635778427124,
        0.9848456978797913,
        1.0
      ],
      "min": [
        -0.9901624321937561,
        -0.9992262125015259,
        -0.9474403858184814,
        -1.0
      ],
      "type": "VEC4"
    },
    {
      "bufferView": 1,
      "byteOffset": 2880,
      "componentType": 5126,
      "count": 7313,
      "max": [
        1.0,
        1.0026808977127075
      ],
      "min": [
        0.0,
        0.0
      ],
      "type": "VEC2"
    },
    {
      "bufferView": 1,
      "byteOffset": 61384,
      "componentType": 5126,
      "count": 7313,
      "max": [
        1.0,
        1.0026808977127075
      ],
      "min": [
        0.0,
        0.0
      ],
      "type": "VEC2"
    },
    {
      "bufferView": 0,
      "byteOffset": 2160,
      "componentType": 5125,
      "count": 35172,
      "type": "SCALAR"
    },
    {
      "bufferView": 2,
      "byteOffset": 184152,
      "componentType": 5126,
      "count": 192,
      "max": [
        -58.60589599609375,
        179.48422241210938,
        -295.138916015625
      ],
      "min": [
        -622.0440673828125,
        -383.9539489746094,
        -340.9781188964844
      ],
      "type": "VEC3"
    },
    {
      "bufferView": 2,
      "byteOffset": 186456,
      "componentType": 5126,
      "count": 192,
      "max": [
        0.9977522492408752,
        0.9977522492408752,
        1.0
      ],
      "min": [
        -0.9977522492408752,
        -0.99775230884552,
        -1.0
      ],
      "type": "VEC3"
    },
    {
      "bufferView": 1,
      "byteOffset": 119888,
      "componentType": 5126,
      "count": 192,
      "max": [
        0.8609226942062378,
        1.1277573108673096
      ],
      "min": [
        -0.757941722869873,
        0.02967706322669983
      ],
      "type": "VEC2"
    },
    {
      "bufferView": 0,
      "byteOffset": 142848,
      "componentType": 5125,
      "count": 372,
      "type": "SCALAR"
    }
  ],
  "asset": {
    "extras": {
      "author": "patroo (https://sketchfab.com/patroo)",
      "license": "CC-BY-4.0 (http://creativecommons.org/licenses/by/4.0/)",
      "source": "https://sketchfab.com/3d-models/salmon-fish-b8778f50bdc74902b1aff81dc60df10f",
      "title": "salmon Fish"
    },
    "generator": "Sketchfab-12.65.0",
    "version": "2.0"
  },
  "bufferViews": [
    {
      "buffer": 0,
      "byteLength": 144336,
      "name": "floatBufferViews",
      "target": 34963
    },
    {
      "buffer": 0,
      "byteLength": 121424,
      "byteOffset": 144336,
      "byteStride": 8,
      "name": "floatBufferViews",
      "target": 34962
    },
    {
      "buffer": 0,
      "byteLength": 188760,
      "byteOffset": 265760,
      "byteStride": 12,
      "name": "floatBufferViews",
      "target": 34962
    },
    {
      "buffer": 0,
      "byteLength": 117008,
      "byteOffset": 454520,
      "byteStride": 16,
      "name": "floatBufferViews",
      "target": 34962
    }
  ],
  "buffers": [
    {
      "byteLength": 571528,
      "uri": "scene.bin"
    }
  ],
  "images": [
    {
      "uri": "textures/Material.009_baseColor.jpeg"
    },
    {
      "uri": "textures/Material.009_normal.png"
    },
    {
      "uri": "textures/Material.007_baseColor.png"
    }
  ],
  "materials": [
    {
      "doubleSided": true,
      "emissiveFactor": [
        1.0,
        1.0,
        0.13006549083435948
      ],
      "name": "Material.010",
      "pbrMetallicRoughness": {
        "baseColorFactor": [
          0.5054543983643133,
          0.31523888781548615,
          0.06426787301850292,
          1.0
        ],
        "metallicFactor": 0.0,
        "roughnessFactor": 0.8040408205773457
      }
    },
    {
      "doubleSided": true,
      "name": "Material.009",
      "normalTexture": {
        "index": 1
      },
      "pbrMetallicRoughness": {
        "baseColorTexture": {
          "index": 0
        },
        "metallicFactor": 0.09291264615216242,
        "roughnessFactor": 0.019950568192182112
      }
    },
    {
      "doubleSided": true,
      "name": "Material.007",
      "pbrMetallicRoughness": {
        "baseColorTexture": {
          "index": 2
        },
        "metallicFactor": 0.0
      }
    }
  ],
  "meshes": [
    {
      "name": "Cube.018_Material.010_0",
      "primitives": [
        {
          "attributes": {
            "NORMAL": 1,
            "POSITION": 0,
            "TEXCOORD_0": 2
          },
          "indices": 3,
          "material": 0,
          "mode": 4
        }
      ]
    },
    {
      "name": "Cube.018_Material.009_0",
      "primitives": [
        {
          "attributes": {
            "NORMAL": 5,
            "POSITION": 4,
            "TANGENT": 6,
            "TEXCOORD_0": 7,
            "TEXCOORD_1": 8
          },
          "indices": 9,
          "material": 1,
          "mode": 4
        }
      ]
    },
    {
      "name": "Cube.018_Material.007_0",
      "primitives": [
        {
          "attributes": {
            "NORMAL": 11,
            "POSITION": 10,
            "TEXCOORD_0": 12
          },
          "indices": 13,
          "material": 2,
          "mode": 4
        }
      ]
    }
  ],
  "nodes": [
    {
      "children": [
        1
      ],
      "matrix": [
        1.0,
        0.0,
        0.0,
        0.0,
        0.0,
        2.220446049250313e-16,
        -1.0,
        0.0,
        0.0,
        1.0,
        2.220446049250313e-16,
        0.0,
        0.0,
        0.0,
        0.0,
        1.0
      ],
      "name": "Sketchfab_model"
    },
    {
      "children": [
        2
      ],
      "matrix": [
        0.009999999776482582,
        0.0,
        0.0,
        0.0,
        0.0,
        0.0,
        0.009999999776482582,
        0.0,
        0.0,
        -0.009999999776482582,
        0.0,
        0.0,
        0.0,
        0.0,
        0.0,
        1.0
      ],
      "name": "e5af0b77e1ee488c94a9e0740d42756d.fbx"
    },
    {
      "children": [
        3
      ],
      "name": "RootNode"
    },
    {
      "children": [
        4,
        5,
        6
      ],
      "matrix": [
        0.040957246549784304,
        1.3566313536533867e-08,
        -0.24561147068332542,
        0.0,
        -0.2456114706833233,
        -3.287148292359119e-08,
        -0.04095724654978576,
        0.0,
        -3.465520819554154e-08,
        0.2490029484033559,
        7.974668905519765e-09,
        0.0,
        -9.11269474029541,
        84.90454864501953,
        -102.05025482177734,
        1.0
      ],
      "name": "Cube.018"
    },
    {
      "mesh": 0,
      "name": "Cube.018_Material.010_0"
    },
    {
      "mesh": 1,
      "name": "Cube.018_Material.009_0"
    },
    {
      "mesh": 2,
      "name": "Cube.018_Material.007_0"
    }
  ],
  "samplers": [
    {
      "magFilter": 9729,
      "minFilter": 9987,
      "wrapS": 10497,
      "wrapT": 10497
    }
  ],
  "scene": 0,
  "scenes": [
    {
      "name": "Sketchfab_Scene",
      "nodes": [
        0
      ]
    }
  ],
  "textures": [
    {
      "sampler": 0,
      "source": 0
    },
    {
      "sampler": 0,
      "source": 1
    },
    {
      "sampler": 0,
      "source": 2
    }
  ]
}
